# xmcd
#
# Track frame offsets:
#	150
#	14733
#	31347
#	46029
#	60753
#	74007
#	90387
#	104640
#	119536
#	133311
#	147693
#	162278
#	178474
#	193353
#	212704
#
# Disc length: 3064 seconds
#
# Revision: 1
# Processed by: cddbd v1.5.2PL0 Copyright (c) Steve Scherf et al.
# Submitted via: audiograbber 1.83.01
#
DISCID=ed0bf60f
DTITLE=Tom J. Anders - Marke Diesel Tom J. Anders
DYEAR=2000
DGENRE=Country
TTITLE0=Wilde Frauen Sind Gefährlich
TTITLE1=Lebe Dein Leben
TTITLE2=Hart Wie Eisen
TTITLE3=Komm Lass Uns Freunde Sein
TTITLE4=Siegertypen
TTITLE5=Marke Diesel
TTITLE6=Sehnsucht
TTITLE7=Fub Weg Vom Gas
TTITLE8=Ich Will So Leben Wie Ich Bin
TTITLE9=Gabi
TTITLE10=Freiheit
TTITLE11=Ganz Unten
TTITLE12=Die Alte Fiedel
TTITLE13=Hallo Freunde
TTITLE14=Vergangenheit
EXTD=
EXTT0=
EXTT1=
EXTT2=
EXTT3=
EXTT4=
EXTT5=
EXTT6=
EXTT7=
EXTT8=
EXTT9=
EXTT10=
EXTT11=
EXTT12=
EXTT13=
EXTT14=
PLAYORDER=
